<?xml version="1.0" ?><svg viewBox="0 0 431.68 391.74" xmlns="http://www.w3.org/2000/svg"><title/><g data-name="Layer 2" id="Layer_2"><g data-name="car, accident, collision, crash, damage, traffic, vehicle, broken, injury, repair" id="car_accident_collision_crash_damage_traffic_vehicle_broken_injury_repair"><path d="M349.85,328.45l-14.93,8.64a5.36,5.36,0,0,0,5.37,9.28l14.93-8.64a5.36,5.36,0,1,0-5.37-9.28Z"/><path d="M301.47,333.55a29.1,29.1,0,1,0,29.09,29.09A29.13,29.13,0,0,0,301.47,333.55Zm0,47.46a18.37,18.37,0,1,1,18.37-18.37A18.4,18.4,0,0,1,301.47,381Z"/><path d="M96.76,337.09l-14.93-8.64a5.36,5.36,0,0,0-5.37,9.28l14.93,8.64a5.36,5.36,0,1,0,5.37-9.28Z"/><path d="M130.21,333.55a29.1,29.1,0,1,0,29.1,29.09A29.12,29.12,0,0,0,130.21,333.55Zm0,47.46a18.37,18.37,0,1,1,18.38-18.37A18.39,18.39,0,0,1,130.21,381Z"/><path d="M242.11,238.34a5.36,5.36,0,0,0,8.65,2.92l44.14-36.64-2.45,17.89A5.36,5.36,0,1,0,303.07,224l4.32-31.54a5.35,5.35,0,0,0-8.73-4.85l-48.05,39.88L242.23,191a5.36,5.36,0,0,0-10-1.14l-17.43,35.89-56.25-68a5.36,5.36,0,0,0-9.45,4.08L158.19,235l-4.83.53a5.36,5.36,0,0,0,.58,10.69,5.83,5.83,0,0,0,.59,0l10.24-1.13a5.36,5.36,0,0,0,4.73-6L162,178.81,211.81,239a5.36,5.36,0,0,0,8.95-1.08l14.42-29.71Z"/><path d="M342.06,224.09A44.89,44.89,0,0,0,323.62,230l-31.69,18.6a35.35,35.35,0,0,0-17,24.73L272.48,288a24.55,24.55,0,0,1-9.7,15.81l-21.29,15.7a35.92,35.92,0,0,0-14.65,30.56c.51,11.41,3.35,21.49,8.44,30a23.86,23.86,0,0,0,20.5,11.54,23.53,23.53,0,0,0,11.83-3.17,5.36,5.36,0,1,0-5.37-9.28,13.14,13.14,0,0,1-17.77-4.6c-4.16-6.94-6.49-15.33-6.92-24.94a25.23,25.23,0,0,1,10.3-21.45l21.29-15.7a35.23,35.23,0,0,0,13.92-22.68l2.44-14.65a24.66,24.66,0,0,1,11.86-17.24l31.69-18.61a34,34,0,0,1,14-4.51c36.65-3.42,61.18,18.36,75.31,37.22a13,13,0,0,1,.75,14.46,5.36,5.36,0,0,0,9.22,5.46,23.67,23.67,0,0,0-1.39-26.35C414,248.33,385.84,220,342.06,224.09Z"/><path d="M388,283.82a29.09,29.09,0,1,0,29.1,29.09A29.12,29.12,0,0,0,388,283.82Zm0,47.46a18.37,18.37,0,1,1,18.38-18.37A18.39,18.39,0,0,1,388,331.28Z"/><path d="M190.19,319.54,168.9,303.83A24.55,24.55,0,0,1,159.2,288l-2.44-14.65a35.37,35.37,0,0,0-17-24.73L108.06,230a44.89,44.89,0,0,0-18.44-5.95c-43.78-4.06-72,24.24-84.88,41.47a23.67,23.67,0,0,0-1.39,26.35,5.36,5.36,0,1,0,9.22-5.46A13,13,0,0,1,13.32,272C27.45,253.13,52,231.36,88.63,234.76a34.14,34.14,0,0,1,14,4.52l31.69,18.61a24.66,24.66,0,0,1,11.86,17.24l2.44,14.65a35.23,35.23,0,0,0,13.92,22.68l21.29,15.7a25.23,25.23,0,0,1,10.3,21.45c-.43,9.61-2.76,18-6.92,24.94a13.14,13.14,0,0,1-17.77,4.6,5.36,5.36,0,1,0-5.37,9.28,23.53,23.53,0,0,0,11.83,3.17,23.89,23.89,0,0,0,20.51-11.54c5.08-8.48,7.92-18.56,8.43-30A35.89,35.89,0,0,0,190.19,319.54Z"/><path d="M43.71,283.82A29.09,29.09,0,1,0,72.8,312.91,29.13,29.13,0,0,0,43.71,283.82Zm0,47.46a18.37,18.37,0,1,1,18.37-18.37A18.4,18.4,0,0,1,43.71,331.28Z"/><path d="M107.94,189.25a5.35,5.35,0,0,0-2.39,7.19l3,6a5.36,5.36,0,1,0,9.59-4.8l-3-6A5.36,5.36,0,0,0,107.94,189.25Z"/><path d="M351.67,197.48l5-6a5.36,5.36,0,0,0-8.23-6.87l-5,6a5.36,5.36,0,1,0,8.23,6.87Z"/><path d="M244.45,7.45a21.85,21.85,0,0,0-38.09,17.28l10.11,75.71a11.65,11.65,0,0,0,23.09,0l10.1-75.71A21.85,21.85,0,0,0,244.45,7.45ZM239,23.31,228.93,99c-.05.34-.11.8-.92.8s-.87-.46-.91-.8L217,23.31a11.12,11.12,0,1,1,22,0Z"/><path d="M209.21,137.27A18.81,18.81,0,1,0,228,118.46,18.82,18.82,0,0,0,209.21,137.27Zm26.89,0a8.09,8.09,0,1,1-8.09-8.09A8.09,8.09,0,0,1,236.1,137.27Z"/></g></g></svg>