<?xml version="1.0" ?><!DOCTYPE svg  PUBLIC '-//W3C//DTD SVG 1.1//EN'  'http://www.w3.org/Graphics/SVG/1.1/DTD/svg11.dtd'><svg enable-background="new 0 0 1000 600" height="600" id="Shape_1_6_" overflow="visible" version="1.1" viewBox="0 0 1000 600" width="1000" xml:space="preserve" xmlns="http://www.w3.org/2000/svg" xmlns:xlink="http://www.w3.org/1999/xlink"><g id="Shape_1"><g><path d="M287.55,389.163v23.572c6.893-1.17,13.26-3.882,18.737-7.767l-16.667-16.668    C288.946,388.62,288.257,388.91,287.55,389.163z M279.837,360.746c-3.792,0-6.866,3.074-6.866,6.866s3.074,6.866,6.866,6.866    s6.866-3.074,6.866-6.866S283.629,360.746,279.837,360.746z M279.837,380.23c-1.607,0-2.911,1.303-2.911,2.91    s1.303,2.91,2.911,2.91c1.607,0,2.91-1.303,2.91-2.91S281.444,380.23,279.837,380.23z M300.528,377.396l16.667,16.667    c3.886-5.477,6.596-11.846,7.766-18.739h-23.574C301.133,376.031,300.848,376.724,300.528,377.396z M300.526,357.829    c0.319,0.673,0.608,1.363,0.861,2.07h23.573c-1.17-6.893-3.882-13.261-7.767-18.738L300.526,357.829z M270.056,346.924    c0.673-0.319,1.362-0.609,2.07-0.862v-23.572c-6.893,1.17-13.26,3.882-18.738,7.767L270.056,346.924z M258.287,375.324h-23.573    c1.17,6.894,3.881,13.262,7.766,18.738l16.668-16.668C258.829,376.722,258.54,376.031,258.287,375.324z M292.456,367.611    c0,1.607,1.303,2.91,2.91,2.91s2.91-1.303,2.91-2.91s-1.303-2.91-2.91-2.91S292.456,366.004,292.456,367.611z M306.288,330.255    c-5.478-3.885-11.845-6.596-18.738-7.766v23.572c0.707,0.253,1.397,0.542,2.07,0.86L306.288,330.255z M279.837,354.992    c1.607,0,2.91-1.303,2.91-2.91s-1.303-2.91-2.91-2.91c-1.607,0-2.911,1.303-2.911,2.91S278.23,354.992,279.837,354.992z     M279.837,292.661c-41.394,0-74.951,33.557-74.951,74.951s33.557,74.951,74.951,74.951s74.951-33.557,74.951-74.951    S321.231,292.661,279.837,292.661z M279.837,421.148c-29.567,0-53.537-23.969-53.537-53.536s23.969-53.536,53.537-53.536    c29.567,0,53.536,23.969,53.536,53.536S309.404,421.148,279.837,421.148z M253.386,404.97c5.477,3.885,11.846,6.596,18.739,7.766    v-23.572c-0.708-0.253-1.398-0.542-2.072-0.861L253.386,404.97z M259.146,357.827l-16.667-16.667    c-3.886,5.478-6.596,11.847-7.766,18.739h23.575C258.542,359.192,258.827,358.501,259.146,357.827z M267.218,367.611    c0-1.607-1.303-2.91-2.91-2.91c-1.607,0-2.91,1.303-2.91,2.91s1.303,2.91,2.91,2.91    C265.916,370.521,267.218,369.219,267.218,367.611z M728.181,357.827l-16.667-16.667c-3.887,5.478-6.597,11.847-7.767,18.739    h23.575C727.576,359.192,727.861,358.501,728.181,357.827z M769.563,377.396l16.667,16.667c3.886-5.477,6.596-11.846,7.766-18.739    h-23.574C770.167,376.031,769.882,376.724,769.563,377.396z M769.561,357.829c0.319,0.673,0.608,1.363,0.861,2.07h23.573    c-1.17-6.893-3.882-13.261-7.767-18.738L769.561,357.829z M756.584,389.163v23.572c6.893-1.17,13.26-3.882,18.737-7.767    l-16.668-16.668C757.98,388.62,757.291,388.91,756.584,389.163z M748.871,360.746c-3.792,0-6.866,3.074-6.866,6.866    s3.074,6.866,6.866,6.866s6.866-3.074,6.866-6.866S752.663,360.746,748.871,360.746z M748.871,292.661    c-41.394,0-74.95,33.557-74.95,74.951s33.557,74.951,74.95,74.951c41.395,0,74.951-33.557,74.951-74.951    S790.266,292.661,748.871,292.661z M748.871,421.148c-29.567,0-53.536-23.969-53.536-53.536s23.969-53.536,53.536-53.536    s53.536,23.969,53.536,53.536S778.438,421.148,748.871,421.148z M937.635,346.594c1.578,1.175-15.13-18.556-25.573-26    c-16.99-12.11-155.921-68.603-256.158-80.555c6.725,0.802-17.57-0.149-23.868-4.688c-4.812-3.468-8.588-8.741-13.213-12.36    c-14.177-11.093-59.156-48.183-82.261-61.376c-2.465-1.407-6.54-1.828-8.95-2.558c-1.324-0.4-11.122-0.132-8.524,0    c-44.285-2.256-106.493-1.794-152.587,10.656c-4.209,1.137-30.368,8.089-48.589,15.344c-5.724,2.278-12.226,4.007-19.18,6.819    c-20.012,8.093-38.345,15.188-57.54,23.868c-11.419,5.165-30.696,14.476-28.13,14.065c-1.611,0.257-3.312-2.109-5.967-1.278    c-5.653,1.768-11.529,6.517-16.623,8.098c-4.053,1.259-25.214,0.021-31.54-7.246c-6.711-7.708-8.796-3.008-20.033-4.688    c9.422,1.408-66.962-4.819-69.474-3.41c-7.891-1.1-3.403,4.299-3.41,5.114c2.299,2.393,3.725,5.662,6.393,7.672    c9.392,7.075,35.363,33.205,37.082,34.95c3.051,3.1,5.275,7.363,8.95,9.804c-0.142,0.426-0.284,0.852-0.426,1.278    c-5.36,1.6-8.503,7.122-12.786,9.803c-8.165,5.111-14.437,12.33-17.049,23.016c0,6.251,0,12.504,0,18.754    c-7.517,0.259-15.208,2.511-21.737,4.263c-4.043,1.084-7.959-0.34-8.098,4.688c-1.802,3.203-0.459,19.141-0.426,24.294    c6.73,4.299,14.264,8.488,21.737,12.36c20.915,10.838,14.065,21.312,14.065,21.312h109.806V363    c0-40.017,32.44-72.457,72.458-72.457h7.107c40.017,0,72.458,32.44,72.458,72.457v35.593h316.817V363    c0-40.017,32.44-72.457,72.458-72.457h8.384c40.018,0,72.458,32.44,72.458,72.457v35.593h37.381c0,0,46.533-0.426,69.9-0.427    c2.136-1.928,6.301-4.372-1.279-11.508c3.559,3.35,5.498-17.201,4.688-30.262c0.284,0,0.568,0,0.853,0    C943.264,352.759,943.868,351.235,937.635,346.594z M388.168,247.711c-0.261,0-0.521,0-0.783,0    c-0.896,0.57-4.825,0.413-4.552,0.416c-24.338-0.919-69.602,2.784-101.15-5.957c-0.821-1.008-1.016-3.081-0.853-3.41    c1.89-7.701,14.557-10.835,21.737-14.491c8.349-4.251,54.001-22.514,68.195-24.721    C377.049,215.943,387.186,245.746,388.168,247.711c0.023,0,0.047,0,0.069,0C388.261,247.852,388.235,247.846,388.168,247.711z     M530.595,248.563c0,0.142,0,0.426,0,0.426H398.893c0,0-12.664-38.209-18.327-50.294c0.753-0.409,0.717-0.536,1.705-0.853    c31.656-14.891,97.021-12.814,119.768-11.934c7.472,13.752,13.626,28.483,20.032,43.048c2.401,5.46,8.331,13.33,8.951,19.606    C530.879,248.563,530.737,248.563,530.595,248.563z M580.463,248.776c-18.3,0-29.133-0.139-43.901-0.213    c-11.222-26.264-24.004-48.287-28.13-61.376c0.658-1.125,1.651-0.93,3.409-0.853c0.641-0.288,2.163-0.012,3.836,0    c8.798,0.062,10.622,6.462,16.197,10.655c6.241,4.695,11.165,10.716,16.622,16.196c9.058,9.099,16.826,16.37,25.999,26.426    c2.14,2.345,3.659,5.085,5.968,7.246C580.463,247.284,580.463,248.35,580.463,248.776z M621.38,242.596    c-3.147,0.942-6.108,0.679-8.951,1.705c-0.562-5.606-5.075-16.551-10.229-17.049c-1.076-0.786-14.896-1.694-16.623-0.853    c-1.051,0.52-0.657,0.754-1.705,1.279c2.474,3.117-9.226-5.693-45.605-47.737c-0.716-0.827-3.147-2.229-2.131-3.409    c1.079-2.12,6.87-4.115,9.803-4.263c48.404,34.093,66.753,50.191,86.097,66.917C628.61,239.973,624.676,241.609,621.38,242.596z     M382.833,248.127c0.095,0.004,0.196,0.006,0.29,0.01C382.95,248.13,382.866,248.128,382.833,248.127z M727.32,375.324h-23.572    c1.169,6.894,3.881,13.262,7.766,18.738l16.668-16.668C727.862,376.722,727.573,376.031,727.32,375.324z M748.871,354.992    c1.607,0,2.91-1.303,2.91-2.91s-1.303-2.91-2.91-2.91s-2.91,1.303-2.91,2.91S747.264,354.992,748.871,354.992z M775.321,330.255    c-5.477-3.885-11.845-6.596-18.737-7.766v23.572c0.707,0.253,1.397,0.542,2.07,0.86L775.321,330.255z M761.49,367.611    c0,1.607,1.303,2.91,2.91,2.91s2.91-1.303,2.91-2.91s-1.303-2.91-2.91-2.91S761.49,366.004,761.49,367.611z M736.252,367.611    c0-1.607-1.303-2.91-2.91-2.91c-1.606,0-2.91,1.303-2.91,2.91s1.304,2.91,2.91,2.91    C734.949,370.521,736.252,369.219,736.252,367.611z M739.09,346.924c0.673-0.319,1.362-0.609,2.069-0.862v-23.572    c-6.893,1.17-13.26,3.882-18.737,7.767L739.09,346.924z M748.871,380.23c-1.607,0-2.91,1.303-2.91,2.91s1.303,2.91,2.91,2.91    s2.91-1.303,2.91-2.91S750.479,380.23,748.871,380.23z M722.42,404.97c5.478,3.885,11.846,6.596,18.739,7.766v-23.572    c-0.707-0.253-1.398-0.542-2.071-0.861L722.42,404.97z" fill="#323232"/></g></g></svg>