<?xml version="1.0" ?><svg viewBox="0 0 32 32" xmlns="http://www.w3.org/2000/svg"><title/><g id="Building"><rect height="1.144" style="fill:#444" width="1.3" x="2.3063" y="6.1805"/><path d="M2.3063,8.6245v21.021h3.003v-2.873h1.794V22.34h-1.04v-1.3h7.111v1.3h-1.04v4.433h1.794v2.873h1.703V8.6245H2.3063Zm9.503,2.717h3.25v3.237h-3.25Zm0,4.979h3.25v3.237h-3.25ZM8,11.3415h3.237v3.237H8Zm0,4.979h3.237v3.237H8Zm-3.822-4.979h3.25v3.237h-3.25Zm0,4.979h3.25v3.237h-3.25Z" style="fill:#444"/><rect height="1.144" style="fill:#444" width="1.3" x="15.6313" y="6.1805"/><polygon points="9.612 2.385 4.672 7.325 14.565 7.325 9.612 2.385" style="fill:#444"/><rect height="2.756" style="fill:#444" width="1.807" x="19.7653" y="25.5895"/><rect height="4.433" style="fill:#444" width="2.431" x="8.4033" y="22.3395"/><rect height="0.273" style="fill:#444" width="6.019" x="6.6093" y="28.0725"/><path d="M29.9852,24.4277h-1.3v.7068h-.7083v-.7068h-1.3v.7068h-.7106V13.6035h-9.035v16.042h1.534V24.29h4.407v5.356h7.111v-.65h.0019Zm-4.0189,2.0068h.7106v1.911h-.7106Zm2.717,1.911h-.7064v-1.911h.7064Z" style="fill:#444"/><polygon points="25.966 12.303 25.966 9.248 24.081 9.248 24.081 10.548 24.081 12.303 24.666 12.303 25.966 12.303" style="fill:#444"/><polygon points="16.931 10.548 16.931 12.303 17.412 12.303 17.412 10.548 17.412 9.248 16.931 9.248 16.931 10.548" style="fill:#444"/><polygon points="22.781 10.548 22.781 9.248 22.3 9.248 22.3 10.548 22.3 12.303 22.781 12.303 22.781 10.548" style="fill:#444"/><polygon points="21 10.548 21 9.248 20.506 9.248 20.506 10.548 20.506 12.303 21 12.303 21 10.548" style="fill:#444"/><polygon points="19.206 10.548 19.206 9.248 18.712 9.248 18.712 10.548 18.712 12.303 19.206 12.303 19.206 10.548" style="fill:#444"/><rect height="0.637" style="fill:#444" width="0.65" x="5.4783" y="12.6415"/><rect height="0.637" style="fill:#444" width="0.637" x="9.3003" y="12.6415"/><rect height="0.637" style="fill:#444" width="0.65" x="13.1093" y="12.6415"/><rect height="0.637" style="fill:#444" width="0.65" x="13.1093" y="17.6205"/><rect height="0.637" style="fill:#444" width="0.637" x="9.3003" y="17.6205"/><rect height="0.637" style="fill:#444" width="0.65" x="5.4783" y="17.6205"/></g></svg>